<svg width="120" height="120" viewBox="0 0 120 120" fill="none" xmlns="http://www.w3.org/2000/svg">
  <!-- Background Circle -->
  <circle cx="60" cy="60" r="60" fill="url(#gradient)"/>
  
  <!-- Main "S" Letter -->
  <path d="M35 45C35 35 43 27 53 27H67C77 27 85 35 85 45C85 50 82 54 78 56L42 74C38 76 35 80 35 85C35 90 39 93 44 93H76C81 93 85 89 85 84" 
        stroke="white" 
        stroke-width="6" 
        stroke-linecap="round" 
        fill="none"/>
  
  <!-- Stream Lines -->
  <g opacity="0.8">
    <line x1="25" y1="35" x2="35" y2="35" stroke="white" stroke-width="2" stroke-linecap="round"/>
    <line x1="85" y1="45" x2="95" y2="45" stroke="white" stroke-width="2" stroke-linecap="round"/>
    <line x1="25" y1="55" x2="35" y2="55" stroke="white" stroke-width="2" stroke-linecap="round"/>
    <line x1="85" y1="65" x2="95" y2="65" stroke="white" stroke-width="2" stroke-linecap="round"/>
    <line x1="25" y1="75" x2="35" y2="75" stroke="white" stroke-width="2" stroke-linecap="round"/>
    <line x1="85" y1="85" x2="95" y2="85" stroke="white" stroke-width="2" stroke-linecap="round"/>
  </g>
  
  <!-- Gradient Definition -->
  <defs>
    <linearGradient id="gradient" x1="0%" y1="0%" x2="100%" y2="100%">
      <stop offset="0%" style="stop-color:#9333EA;stop-opacity:1" />
      <stop offset="50%" style="stop-color:#7C3AED;stop-opacity:1" />
      <stop offset="100%" style="stop-color:#3B82F6;stop-opacity:1" />
    </linearGradient>
  </defs>
</svg>